<?xml version="1.0" standalone="no"?>
<!DOCTYPE svg PUBLIC "-//W3C//DTD SVG 20010904//EN"
 "http://www.w3.org/TR/2001/REC-SVG-20010904/DTD/svg10.dtd">
<svg version="1.0" xmlns="http://www.w3.org/2000/svg"
 width="700.000000pt" height="700.000000pt" viewBox="0 0 700.000000 700.000000"
 preserveAspectRatio="xMidYMid meet">
<metadata>
Created by potrace 1.14, written by Peter Selinger 2001-2017
</metadata>
<g transform="translate(0.000000,700.000000) scale(0.100000,-0.100000)"
fill="#000000" stroke="none">
<path d="M3045 5576 c-197 -39 -381 -147 -498 -291 l-48 -60 -94 -7 c-127 -9
-213 -31 -322 -84 -232 -111 -400 -322 -457 -574 -4 -16 -27 -39 -67 -65 -78
-52 -189 -169 -241 -257 -89 -150 -131 -347 -110 -515 6 -50 25 -131 42 -180
17 -48 31 -95 32 -103 0 -8 -14 -53 -31 -100 -82 -227 -60 -473 62 -690 51
-90 204 -248 289 -299 70 -40 154 -75 239 -98 91 -24 300 -24 394 1 78 20 194
71 248 108 l36 24 93 -91 c101 -99 207 -162 343 -205 95 -30 299 -38 402 -17
105 23 242 84 333 148 12 8 32 0 90 -35 99 -61 216 -105 315 -119 l81 -11 165
-260 c90 -143 180 -278 199 -300 46 -52 100 -76 175 -76 54 0 76 8 230 80 142
67 178 89 216 130 53 56 76 123 65 193 -4 23 -52 136 -107 251 -55 115 -96
212 -92 216 4 4 31 15 58 25 126 45 271 154 358 266 62 82 127 211 151 304 37
138 31 320 -15 462 l-20 62 56 68 c69 84 138 222 166 328 29 112 29 290 0 400
-91 342 -372 590 -713 630 l-57 7 -36 77 c-88 185 -258 345 -443 415 -124 47
-195 58 -337 53 -137 -5 -209 -20 -307 -64 l-58 -26 -60 56 c-33 31 -81 70
-106 88 -64 44 -197 104 -274 123 -90 23 -258 29 -345 12z m313 -180 c141 -38
275 -129 362 -247 104 -141 169 -277 211 -442 16 -66 28 -93 47 -107 35 -28
69 -25 104 10 29 29 30 34 24 83 -10 77 -70 248 -126 360 l-49 99 45 19 c24
11 75 27 112 34 337 72 669 -129 772 -468 16 -51 40 -64 137 -70 239 -17 420
-126 543 -325 80 -130 110 -321 76 -476 -39 -172 -158 -338 -291 -404 -132
-66 -168 -75 -308 -76 l-129 -1 -25 -29 c-28 -33 -26 -77 5 -108 58 -58 318
-40 480 33 44 20 64 25 67 16 79 -238 6 -513 -185 -690 -83 -77 -184 -130
-304 -159 -77 -19 -91 -26 -108 -52 -11 -19 -16 -40 -13 -55 3 -13 62 -142
131 -287 119 -249 125 -264 112 -290 -10 -22 -47 -45 -158 -100 -162 -81 -197
-89 -229 -48 -12 15 -101 153 -198 307 -193 304 -196 307 -286 307 -91 0 -253
57 -331 115 -19 14 -18 15 6 53 72 109 129 265 143 393 6 60 5 68 -17 93 -46
54 -132 29 -143 -41 -45 -277 -153 -448 -345 -541 -47 -23 -112 -49 -145 -57
-76 -19 -234 -19 -310 0 -153 39 -308 147 -397 278 -64 95 -95 98 -193 21
-330 -259 -813 -149 -1000 228 -63 128 -85 248 -67 373 24 166 82 273 195 365
128 103 253 142 388 120 71 -11 82 -11 104 4 47 31 55 95 17 129 -46 41 -227
53 -341 23 -102 -27 -216 -91 -293 -164 l-36 -35 -16 51 c-36 123 -29 281 20
411 49 131 164 267 279 332 71 40 80 53 99 140 52 236 219 420 451 496 67 22
100 26 209 28 117 2 131 4 145 23 9 11 38 50 65 87 26 37 74 87 105 111 70 56
198 119 271 133 30 6 64 13 75 15 35 8 188 -3 243 -18z"/>
<path d="M2625 4620 c-69 -8 -120 -23 -186 -56 -56 -28 -130 -88 -147 -121
-17 -31 -7 -78 21 -98 38 -27 78 -18 142 30 79 59 141 80 235 79 92 -1 165
-27 234 -84 61 -50 113 -55 145 -14 35 44 28 81 -24 131 -102 97 -265 149
-420 133z"/>
<path d="M3792 3965 c-76 -26 -103 -40 -164 -87 l-36 -28 -64 34 c-75 42 -162
66 -236 66 -66 0 -102 -29 -102 -83 0 -51 32 -74 119 -87 97 -14 150 -38 215
-100 64 -61 103 -141 115 -236 6 -55 13 -71 35 -91 37 -32 71 -29 108 8 30 29
31 32 24 98 -7 77 -34 164 -71 227 l-26 43 41 30 c129 93 315 86 447 -18 61
-48 75 -53 114 -39 35 12 59 55 51 94 -10 54 -150 149 -263 179 -87 24 -221
19 -307 -10z"/>
</g>
</svg>
